<svg width="24" height="23" viewBox="0 0 24 23" fill="none" xmlns="http://www.w3.org/2000/svg">
<path d="M12 1.98177C15.2063 1.98177 15.586 1.99467 16.8469 2.04626C18.0188 2.09354 18.6516 2.2741 19.0735 2.42456C19.6313 2.6223 20.0344 2.86304 20.4516 3.24564C20.8735 3.63254 21.1313 3.99794 21.3469 4.5095C21.511 4.8964 21.7078 5.48105 21.7594 6.55146C21.8156 7.71215 21.8297 8.06036 21.8297 10.9965C21.8297 13.9369 21.8156 14.2851 21.7594 15.4415C21.7078 16.5162 21.511 17.0966 21.3469 17.4835C21.1313 17.995 20.8688 18.3647 20.4516 18.7473C20.0297 19.1342 19.6313 19.3707 19.0735 19.5684C18.6516 19.7189 18.0141 19.8994 16.8469 19.9467C15.5813 19.9983 15.2016 20.0112 12 20.0112C8.79376 20.0112 8.41407 19.9983 7.15313 19.9467C5.98126 19.8994 5.34844 19.7189 4.92657 19.5684C4.36875 19.3707 3.96563 19.1299 3.54844 18.7473C3.12657 18.3604 2.86875 17.995 2.65313 17.4835C2.48906 17.0966 2.29219 16.5119 2.24063 15.4415C2.18438 14.2808 2.17031 13.9326 2.17031 10.9965C2.17031 8.05606 2.18438 7.70785 2.24063 6.55146C2.29219 5.47675 2.48906 4.8964 2.65313 4.5095C2.86875 3.99794 3.13125 3.62824 3.54844 3.24564C3.97032 2.85874 4.36875 2.6223 4.92657 2.42456C5.34844 2.2741 5.98594 2.09354 7.15313 2.04626C8.41407 1.99467 8.79376 1.98177 12 1.98177ZM12 0C8.7422 0 8.33438 0.0128966 7.05469 0.0644829C5.77969 0.116069 4.90313 0.305219 4.14375 0.576047C3.35157 0.859772 2.68125 1.23377 2.01563 1.84851C1.34531 2.45895 0.937501 3.07368 0.628126 3.79589C0.332813 4.49661 0.126563 5.29619 0.0703126 6.46548C0.0140625 7.64337 0 8.01737 0 11.0051C0 13.9928 0.0140625 14.3668 0.0703126 15.5404C0.126563 16.7097 0.332813 17.5136 0.628126 18.21C0.937501 18.9365 1.34531 19.5512 2.01563 20.1616C2.68125 20.7721 3.35157 21.1504 4.13907 21.4298C4.90313 21.7006 5.77501 21.8898 7.05001 21.9414C8.3297 21.993 8.73751 22.0059 11.9953 22.0059C15.2531 22.0059 15.661 21.993 16.9406 21.9414C18.2156 21.8898 19.0922 21.7006 19.8516 21.4298C20.6391 21.1504 21.3094 20.7721 21.975 20.1616C22.6406 19.5512 23.0531 18.9365 23.3578 18.2143C23.6531 17.5136 23.8594 16.714 23.9156 15.5447C23.9719 14.3711 23.986 13.9971 23.986 11.0094C23.986 8.02167 23.9719 7.64767 23.9156 6.47408C23.8594 5.30479 23.6531 4.50091 23.3578 3.80449C23.0625 3.07368 22.6547 2.45895 21.9844 1.84851C21.3188 1.23807 20.6485 0.859772 19.861 0.580346C19.0969 0.309518 18.225 0.120368 16.95 0.0687817C15.6656 0.0128966 15.2578 0 12 0Z" fill="white"/>
<path d="M12 5.35156C8.59688 5.35156 5.83594 7.88373 5.83594 11.0049C5.83594 14.126 8.59688 16.6582 12 16.6582C15.4031 16.6582 18.1641 14.126 18.1641 11.0049C18.1641 7.88373 15.4031 5.35156 12 5.35156ZM12 14.672C9.79219 14.672 8.00156 13.0298 8.00156 11.0049C8.00156 8.98001 9.79219 7.33775 12 7.33775C14.2078 7.33775 15.9984 8.98001 15.9984 11.0049C15.9984 13.0298 14.2078 14.672 12 14.672Z" fill="white"/>
<path d="M19.8469 5.12817C19.8469 5.85889 19.2 6.44775 18.4078 6.44775C17.6109 6.44775 16.9688 5.85459 16.9688 5.12817C16.9688 4.39746 17.6156 3.80859 18.4078 3.80859C19.2 3.80859 19.8469 4.40176 19.8469 5.12817Z" fill="white"/>
</svg>
